<svg width="1920" height="927" viewBox="0 0 1920 927" fill="none" xmlns="http://www.w3.org/2000/svg">
<rect width="1920" height="548" fill="url(#paint0_linear_0_1)"/>
<path d="M145.236 249.345L166.687 246.087C171.497 245.404 172.865 243 172.865 240.084C172.865 233.055 168.055 227.394 157.078 227.394C146.102 227.394 140.768 234.081 139.913 242.487L121.721 238.375C123.271 223.965 136.311 211.104 156.907 211.104C182.656 211.104 192.436 225.685 192.436 242.328V283.838C192.436 291.39 193.291 296.357 193.462 297.223H174.928C174.757 296.71 174.073 293.281 174.073 286.583C170.129 292.928 161.889 299.797 148.325 299.797C130.817 299.797 120 287.791 120 274.577C120 259.654 130.988 251.418 145.236 249.356V249.345ZM172.865 262.559V258.788L151.072 262.046C144.894 263.072 139.913 266.512 139.913 273.369C139.913 279.031 144.198 284.18 152.097 284.18C163.256 284.18 172.865 278.86 172.865 262.57V262.559Z" fill="black"/>
<path d="M227.625 249.345L249.077 246.087C253.887 245.404 255.255 243 255.255 240.084C255.255 233.055 250.445 227.394 239.468 227.394C228.492 227.394 223.157 234.081 222.302 242.487L204.111 238.375C205.661 223.965 218.701 211.104 239.297 211.104C265.046 211.104 274.826 225.685 274.826 242.328V283.838C274.826 291.39 275.68 296.357 275.851 297.223H257.318C257.147 296.71 256.463 293.281 256.463 286.583C252.519 292.928 244.278 299.797 230.714 299.797C213.207 299.797 202.39 287.791 202.39 274.577C202.39 259.654 213.378 251.418 227.625 249.356V249.345ZM255.255 262.559V258.788L233.461 262.046C227.284 263.072 222.302 266.512 222.302 273.369C222.302 279.031 226.588 284.18 234.487 284.18C245.646 284.18 255.255 278.86 255.255 262.57V262.559Z" fill="black"/>
<path d="M339.097 233.397C336.863 233.056 334.629 232.885 332.577 232.885C317.133 232.885 310.089 241.804 310.089 257.422V297.223H290.176V213.667H309.576V227.052C313.52 217.962 322.798 212.642 333.774 212.642C336.179 212.642 338.242 212.984 339.097 213.155V233.397Z" fill="black"/>
<path d="M426.485 255.278C426.485 281.011 408.122 299.704 383.058 299.704C357.993 299.704 339.801 281.011 339.801 255.278C339.801 229.545 358.164 211.023 383.058 211.023C407.951 211.023 426.485 229.716 426.485 255.278ZM406.401 255.278C406.401 237.952 395.413 229.032 383.058 229.032C370.702 229.032 359.714 237.952 359.714 255.278C359.714 272.604 370.873 281.865 383.058 281.865C395.242 281.865 406.401 272.775 406.401 255.278Z" fill="black"/>
<path d="M459.288 173.638V249.052L460.389 247.893L492.297 214.294H516.947L483.667 248.547L483.293 248.933L483.608 249.366L517.889 296.551H495.098L470.748 262.676L470.3 262.052L469.769 262.608L459.465 273.419L459.288 273.604V296.551H440.822V173.638H459.288Z" fill="#225FDA" stroke="#225FDA" stroke-width="1.27577"/>
<path d="M535.542 214.256L559.4 266.715L559.999 268.034L560.568 266.701L582.891 214.256H602.588L549.96 330.311H530.074L549.743 287.472L549.868 287.198L549.738 286.927L514.483 214.256H535.542Z" fill="#225FDA" stroke="#225FDA" stroke-width="1.27577"/>
<path d="M638.791 211.742C651.545 211.742 660.245 215.351 665.758 220.924C671.274 226.5 673.682 234.128 673.682 242.328V283.838C673.682 290.198 674.286 294.743 674.587 296.585H657.316C657.221 296.125 657.082 295.324 656.954 294.153C656.765 292.419 656.595 289.91 656.595 286.583V284.348L655.415 286.247C651.574 292.427 643.526 299.159 630.208 299.159C613.023 299.159 602.522 287.409 602.522 274.577C602.522 267.289 605.198 261.67 609.592 257.612C614 253.541 620.176 251.006 627.211 249.988L627.758 249.909V249.892L648.66 246.718L648.661 246.719C651.154 246.364 652.861 245.549 653.939 244.348C655.021 243.143 655.387 241.639 655.387 240.084C655.387 236.419 654.129 233.061 651.397 230.627C648.672 228.199 644.555 226.756 638.962 226.756C633.338 226.756 629.091 228.473 626.14 231.33C623.359 234.022 621.782 237.675 621.246 241.709L604.307 237.88C606.093 224.063 618.749 211.742 638.791 211.742ZM654.654 258.158L632.861 261.416L632.851 261.417C629.685 261.942 626.766 263.095 624.629 265.05C622.475 267.02 621.158 269.768 621.158 273.369C621.158 276.362 622.293 279.233 624.483 281.355C626.676 283.48 629.889 284.817 633.982 284.817C639.651 284.817 645.018 283.467 648.973 279.961C652.942 276.442 655.387 270.843 655.387 262.57V258.048L654.654 258.158Z" fill="#225FDA" stroke="#225FDA" stroke-width="1.27577"/>
<path d="M666.898 310.601V370.941" stroke="#225FDA" stroke-width="19.1365" stroke-miterlimit="10"/>
<path d="M697 340.775H636.624" stroke="#225FDA" stroke-width="19.1365" stroke-miterlimit="10"/>
<path d="M450.993 327.632C458.823 345.414 472.182 360.405 488.333 370.395C514.572 386.616 545.94 391.811 575.838 388.234C598.851 385.477 624.941 377.799 643.999 362.227" stroke="#225FDA" stroke-width="19.1365" stroke-miterlimit="10"/>
<path d="M123.075 917V882.806H128.308V897.562H145.152V882.806H150.362V917H145.152V902.129H128.308V917H123.075ZM166.094 917.551C163.692 917.551 161.627 917.008 159.898 915.921C158.169 914.835 156.838 913.343 155.905 911.446C154.987 909.534 154.528 907.361 154.528 904.929C154.528 902.45 155.009 900.262 155.973 898.365C156.937 896.453 158.268 894.953 159.967 893.867C161.665 892.766 163.623 892.215 165.842 892.215C167.555 892.215 169.108 892.521 170.5 893.133C171.892 893.745 173.086 894.617 174.08 895.749C175.09 896.866 175.855 898.197 176.375 899.742C176.911 901.287 177.178 902.993 177.178 904.86V906.214H156.708V902.542H174.608L172.428 903.621C172.428 902.137 172.16 900.851 171.625 899.765C171.089 898.664 170.332 897.814 169.353 897.218C168.374 896.621 167.218 896.323 165.887 896.323C164.572 896.323 163.424 896.621 162.445 897.218C161.481 897.814 160.731 898.664 160.196 899.765C159.661 900.851 159.393 902.137 159.393 903.621V905.755C159.393 907.27 159.653 908.608 160.173 909.771C160.709 910.918 161.481 911.821 162.491 912.479C163.501 913.122 164.725 913.443 166.163 913.443C167.218 913.443 168.144 913.282 168.94 912.961C169.751 912.64 170.416 912.196 170.936 911.63C171.472 911.049 171.854 910.375 172.084 909.61H176.834C176.528 911.186 175.87 912.571 174.861 913.764C173.866 914.942 172.612 915.868 171.097 916.541C169.598 917.214 167.93 917.551 166.094 917.551ZM188.206 917.39C186.6 917.39 185.161 917.115 183.892 916.564C182.637 916.013 181.643 915.195 180.908 914.108C180.174 913.022 179.807 911.676 179.807 910.069C179.807 908.692 180.067 907.56 180.587 906.673C181.122 905.785 181.834 905.082 182.721 904.562C183.624 904.041 184.649 903.651 185.796 903.391C186.959 903.116 188.152 902.909 189.376 902.771C190.891 902.573 192.092 902.42 192.979 902.312C193.867 902.19 194.494 902.007 194.861 901.762C195.244 901.502 195.435 901.081 195.435 900.5V900.293C195.435 899.513 195.244 898.824 194.861 898.228C194.479 897.631 193.92 897.164 193.186 896.828C192.467 896.491 191.602 896.323 190.593 896.323C189.583 896.323 188.688 896.491 187.908 896.828C187.127 897.149 186.508 897.6 186.049 898.182C185.59 898.763 185.33 899.429 185.268 900.178H180.403C180.495 898.679 180.962 897.34 181.803 896.162C182.645 894.969 183.815 894.028 185.314 893.339C186.814 892.636 188.581 892.284 190.616 892.284C192.115 892.284 193.461 892.483 194.655 892.88C195.863 893.263 196.888 893.814 197.73 894.533C198.571 895.252 199.214 896.101 199.658 897.08C200.117 898.059 200.346 899.138 200.346 900.316V917H195.458V913.558H195.366C195.03 914.215 194.563 914.843 193.966 915.439C193.385 916.021 192.628 916.495 191.694 916.862C190.761 917.214 189.598 917.39 188.206 917.39ZM189.239 913.443C190.646 913.443 191.809 913.19 192.727 912.686C193.645 912.181 194.326 911.515 194.769 910.689C195.228 909.847 195.458 908.93 195.458 907.935V905.135C195.29 905.258 195.014 905.38 194.632 905.502C194.265 905.61 193.813 905.717 193.278 905.824C192.758 905.931 192.184 906.038 191.557 906.145C190.945 906.237 190.325 906.321 189.698 906.397C188.826 906.52 188.007 906.726 187.242 907.017C186.492 907.292 185.88 907.683 185.406 908.188C184.947 908.677 184.718 909.335 184.718 910.161C184.718 911.186 185.123 911.989 185.934 912.571C186.745 913.152 187.846 913.443 189.239 913.443ZM210.295 882.806V917H205.338V882.806H210.295ZM226.785 892.766V896.851H213.313V892.766H226.785ZM216.893 886.156H221.85V910.115C221.85 911.125 222.057 911.844 222.47 912.272C222.898 912.701 223.618 912.915 224.627 912.915C224.995 912.915 225.362 912.915 225.729 912.915C226.111 912.915 226.463 912.915 226.785 912.915V917C226.387 917 225.92 917 225.385 917C224.864 917 224.344 917 223.824 917C221.621 917 219.915 916.472 218.706 915.417C217.498 914.346 216.893 912.846 216.893 910.918V886.156ZM235.747 902.978V917H230.79V882.806H235.747V896.805H235.816C236.366 895.535 237.246 894.464 238.455 893.592C239.663 892.72 241.216 892.284 243.113 892.284C244.796 892.284 246.319 892.651 247.68 893.385C249.042 894.12 250.128 895.198 250.939 896.621C251.765 898.044 252.178 899.803 252.178 901.899V917H247.221V902.496C247.221 900.568 246.724 899.107 245.73 898.113C244.735 897.118 243.389 896.621 241.691 896.621C240.604 896.621 239.61 896.843 238.707 897.287C237.804 897.73 237.085 898.419 236.55 899.352C236.014 900.285 235.747 901.494 235.747 902.978ZM267.543 917.551C265.233 917.551 263.206 917.015 261.462 915.944C259.718 914.873 258.364 913.389 257.4 911.492C256.436 909.58 255.954 907.392 255.954 904.929C255.954 902.435 256.436 900.232 257.4 898.319C258.364 896.407 259.718 894.915 261.462 893.844C263.206 892.758 265.233 892.215 267.543 892.215C269.486 892.215 271.223 892.597 272.753 893.362C274.283 894.112 275.522 895.16 276.471 896.506C277.419 897.837 277.993 899.367 278.192 901.096H273.281C273.112 900.194 272.783 899.398 272.294 898.709C271.819 898.006 271.185 897.455 270.389 897.057C269.593 896.659 268.652 896.46 267.566 896.46C266.189 896.46 265.004 896.812 264.009 897.516C263.03 898.205 262.273 899.184 261.737 900.454C261.217 901.723 260.957 903.215 260.957 904.929C260.957 906.627 261.217 908.103 261.737 909.358C262.273 910.612 263.03 911.584 264.009 912.272C265.004 912.961 266.189 913.305 267.566 913.305C269.219 913.305 270.488 912.884 271.376 912.043C272.278 911.186 272.89 910.054 273.212 908.646H278.192C278.008 910.345 277.442 911.867 276.493 913.213C275.545 914.56 274.298 915.623 272.753 916.403C271.223 917.168 269.486 917.551 267.543 917.551ZM289.127 917.39C287.521 917.39 286.083 917.115 284.813 916.564C283.558 916.013 282.564 915.195 281.83 914.108C281.095 913.022 280.728 911.676 280.728 910.069C280.728 908.692 280.988 907.56 281.508 906.673C282.044 905.785 282.755 905.082 283.643 904.562C284.545 904.041 285.57 903.651 286.718 903.391C287.881 903.116 289.074 902.909 290.298 902.771C291.813 902.573 293.014 902.42 293.901 902.312C294.788 902.19 295.416 902.007 295.783 901.762C296.165 901.502 296.356 901.081 296.356 900.5V900.293C296.356 899.513 296.165 898.824 295.783 898.228C295.4 897.631 294.842 897.164 294.107 896.828C293.388 896.491 292.524 896.323 291.514 896.323C290.504 896.323 289.609 896.491 288.829 896.828C288.049 897.149 287.429 897.6 286.97 898.182C286.511 898.763 286.251 899.429 286.19 900.178H281.325C281.417 898.679 281.883 897.34 282.725 896.162C283.566 894.969 284.737 894.028 286.236 893.339C287.735 892.636 289.502 892.284 291.537 892.284C293.037 892.284 294.383 892.483 295.576 892.88C296.785 893.263 297.81 893.814 298.651 894.533C299.493 895.252 300.135 896.101 300.579 897.08C301.038 898.059 301.268 899.138 301.268 900.316V917H296.379V913.558H296.288C295.951 914.215 295.484 914.843 294.888 915.439C294.306 916.021 293.549 916.495 292.616 916.862C291.683 917.214 290.52 917.39 289.127 917.39ZM290.16 913.443C291.568 913.443 292.731 913.19 293.648 912.686C294.566 912.181 295.247 911.515 295.691 910.689C296.15 909.847 296.379 908.93 296.379 907.935V905.135C296.211 905.258 295.936 905.38 295.553 905.502C295.186 905.61 294.735 905.717 294.199 905.824C293.679 905.931 293.105 906.038 292.478 906.145C291.866 906.237 291.246 906.321 290.619 906.397C289.747 906.52 288.929 906.726 288.164 907.017C287.414 907.292 286.802 907.683 286.328 908.188C285.869 908.677 285.639 909.335 285.639 910.161C285.639 911.186 286.045 911.989 286.856 912.571C287.666 913.152 288.768 913.443 290.16 913.443ZM306.214 917V892.766H310.964V896.69H311.056C311.5 895.359 312.196 894.326 313.144 893.592C314.108 892.842 315.363 892.467 316.908 892.467C317.275 892.467 317.612 892.483 317.918 892.513C318.239 892.528 318.499 892.551 318.698 892.582V897.172C318.499 897.141 318.155 897.095 317.665 897.034C317.191 896.973 316.671 896.942 316.105 896.942C315.202 896.942 314.376 897.157 313.626 897.585C312.877 897.998 312.28 898.633 311.836 899.49C311.393 900.347 311.171 901.433 311.171 902.749V917H306.214ZM331.424 917.551C329.022 917.551 326.956 917.008 325.228 915.921C323.499 914.835 322.168 913.343 321.234 911.446C320.316 909.534 319.857 907.361 319.857 904.929C319.857 902.45 320.339 900.262 321.303 898.365C322.267 896.453 323.598 894.953 325.296 893.867C326.995 892.766 328.953 892.215 331.171 892.215C332.885 892.215 334.438 892.521 335.83 893.133C337.222 893.745 338.416 894.617 339.41 895.749C340.42 896.866 341.185 898.197 341.705 899.742C342.241 901.287 342.508 902.993 342.508 904.86V906.214H322.038V902.542H339.938L337.758 903.621C337.758 902.137 337.49 900.851 336.955 899.765C336.419 898.664 335.662 897.814 334.683 897.218C333.703 896.621 332.548 896.323 331.217 896.323C329.902 896.323 328.754 896.621 327.775 897.218C326.811 897.814 326.061 898.664 325.526 899.765C324.99 900.851 324.723 902.137 324.723 903.621V905.755C324.723 907.27 324.983 908.608 325.503 909.771C326.038 910.918 326.811 911.821 327.821 912.479C328.831 913.122 330.055 913.443 331.493 913.443C332.548 913.443 333.474 913.282 334.27 912.961C335.08 912.64 335.746 912.196 336.266 911.63C336.802 911.049 337.184 910.375 337.414 909.61H342.164C341.858 911.186 341.2 912.571 340.19 913.764C339.196 914.942 337.941 915.868 336.427 916.541C334.927 917.214 333.26 917.551 331.424 917.551ZM364.219 917.39C362.613 917.39 361.175 917.115 359.905 916.564C358.65 916.013 357.656 915.195 356.921 914.108C356.187 913.022 355.82 911.676 355.82 910.069C355.82 908.692 356.08 907.56 356.6 906.673C357.136 905.785 357.847 905.082 358.734 904.562C359.637 904.041 360.662 903.651 361.809 903.391C362.972 903.116 364.166 902.909 365.39 902.771C366.904 902.573 368.105 902.42 368.993 902.312C369.88 902.19 370.507 902.007 370.874 901.762C371.257 901.502 371.448 901.081 371.448 900.5V900.293C371.448 899.513 371.257 898.824 370.874 898.228C370.492 897.631 369.934 897.164 369.199 896.828C368.48 896.491 367.616 896.323 366.606 896.323C365.596 896.323 364.701 896.491 363.921 896.828C363.141 897.149 362.521 897.6 362.062 898.182C361.603 898.763 361.343 899.429 361.282 900.178H356.416C356.508 898.679 356.975 897.34 357.816 896.162C358.658 894.969 359.828 894.028 361.328 893.339C362.827 892.636 364.594 892.284 366.629 892.284C368.128 892.284 369.475 892.483 370.668 892.88C371.877 893.263 372.902 893.814 373.743 894.533C374.585 895.252 375.227 896.101 375.671 897.08C376.13 898.059 376.359 899.138 376.359 900.316V917H371.471V913.558H371.379C371.043 914.215 370.576 914.843 369.979 915.439C369.398 916.021 368.641 916.495 367.707 916.862C366.774 917.214 365.611 917.39 364.219 917.39ZM365.252 913.443C366.659 913.443 367.822 913.19 368.74 912.686C369.658 912.181 370.339 911.515 370.783 910.689C371.242 909.847 371.471 908.93 371.471 907.935V905.135C371.303 905.258 371.027 905.38 370.645 905.502C370.278 905.61 369.826 905.717 369.291 905.824C368.771 905.931 368.197 906.038 367.57 906.145C366.958 906.237 366.338 906.321 365.711 906.397C364.839 906.52 364.02 906.726 363.255 907.017C362.506 907.292 361.894 907.683 361.419 908.188C360.96 908.677 360.731 909.335 360.731 910.161C360.731 911.186 361.136 911.989 361.947 912.571C362.758 913.152 363.86 913.443 365.252 913.443ZM381.351 926.593V892.766H386.216V896.231H386.262C386.783 895.359 387.425 894.632 388.19 894.051C388.955 893.454 389.812 893.01 390.76 892.72C391.709 892.429 392.703 892.284 393.744 892.284C395.84 892.284 397.676 892.819 399.252 893.89C400.827 894.946 402.051 896.422 402.923 898.319C403.796 900.201 404.232 902.389 404.232 904.883C404.232 907.377 403.796 909.572 402.923 911.469C402.051 913.351 400.827 914.827 399.252 915.898C397.691 916.954 395.855 917.482 393.744 917.482C392.688 917.482 391.701 917.329 390.783 917.023C389.865 916.717 389.032 916.258 388.282 915.646C387.532 915.034 386.89 914.269 386.354 913.351H386.308V926.593H381.351ZM392.711 913.236C394.012 913.236 395.144 912.915 396.108 912.272C397.087 911.63 397.852 910.689 398.402 909.45C398.953 908.195 399.229 906.673 399.229 904.883C399.229 903.062 398.953 901.532 398.402 900.293C397.852 899.054 397.087 898.113 396.108 897.47C395.144 896.828 394.012 896.506 392.711 896.506C391.349 896.506 390.164 896.851 389.154 897.539C388.144 898.228 387.364 899.199 386.813 900.454C386.262 901.708 385.987 903.185 385.987 904.883C385.987 906.55 386.262 908.012 386.813 909.266C387.364 910.521 388.144 911.5 389.154 912.204C390.164 912.892 391.349 913.236 392.711 913.236ZM408.053 926.593V892.766H412.918V896.231H412.964C413.484 895.359 414.127 894.632 414.892 894.051C415.657 893.454 416.514 893.01 417.462 892.72C418.411 892.429 419.405 892.284 420.446 892.284C422.542 892.284 424.378 892.819 425.953 893.89C427.529 894.946 428.753 896.422 429.625 898.319C430.497 900.201 430.933 902.389 430.933 904.883C430.933 907.377 430.497 909.572 429.625 911.469C428.753 913.351 427.529 914.827 425.953 915.898C424.393 916.954 422.557 917.482 420.446 917.482C419.39 917.482 418.403 917.329 417.485 917.023C416.567 916.717 415.733 916.258 414.984 915.646C414.234 915.034 413.592 914.269 413.056 913.351H413.01V926.593H408.053ZM419.413 913.236C420.713 913.236 421.846 912.915 422.809 912.272C423.789 911.63 424.554 910.689 425.104 909.45C425.655 908.195 425.931 906.673 425.931 904.883C425.931 903.062 425.655 901.532 425.104 900.293C424.554 899.054 423.789 898.113 422.809 897.47C421.846 896.828 420.713 896.506 419.413 896.506C418.051 896.506 416.866 896.851 415.856 897.539C414.846 898.228 414.066 899.199 413.515 900.454C412.964 901.708 412.689 903.185 412.689 904.883C412.689 906.55 412.964 908.012 413.515 909.266C414.066 910.521 414.846 911.5 415.856 912.204C416.866 912.892 418.051 913.236 419.413 913.236ZM457.831 917.482C456.775 917.482 455.781 917.329 454.847 917.023C453.914 916.717 453.065 916.258 452.3 915.646C451.535 915.034 450.885 914.269 450.349 913.351H450.304V917H445.438V882.806H450.395V896.231H450.441C450.961 895.359 451.596 894.632 452.346 894.051C453.096 893.454 453.937 893.01 454.87 892.72C455.804 892.429 456.791 892.284 457.831 892.284C459.927 892.284 461.763 892.819 463.339 893.89C464.915 894.946 466.138 896.422 467.011 898.319C467.883 900.201 468.319 902.389 468.319 904.883C468.319 907.377 467.883 909.572 467.011 911.469C466.138 913.351 464.915 914.827 463.339 915.898C461.778 916.954 459.942 917.482 457.831 917.482ZM456.798 913.236C458.099 913.236 459.231 912.915 460.195 912.272C461.174 911.63 461.939 910.689 462.49 909.45C463.04 908.195 463.316 906.673 463.316 904.883C463.316 903.062 463.04 901.532 462.49 900.293C461.939 899.054 461.174 898.113 460.195 897.47C459.231 896.828 458.099 896.506 456.798 896.506C455.437 896.506 454.251 896.851 453.241 897.539C452.231 898.228 451.451 899.199 450.9 900.454C450.349 901.708 450.074 903.185 450.074 904.883C450.074 906.55 450.349 908.012 450.9 909.266C451.451 910.521 452.231 911.5 453.241 912.204C454.251 912.892 455.437 913.236 456.798 913.236ZM474.986 926.593C474.466 926.593 473.946 926.593 473.425 926.593C472.905 926.593 472.385 926.593 471.865 926.593V922.255H474.297C475.154 922.255 475.82 921.988 476.294 921.452C476.784 920.917 477.174 920.266 477.464 919.501L478.428 917L469.203 892.766H474.481L481.067 911.217H481.159L487.654 892.766H492.84L482.031 921.223C481.603 922.37 481.044 923.342 480.356 924.137C479.668 924.948 478.864 925.56 477.946 925.973C477.044 926.386 476.057 926.593 474.986 926.593ZM534.632 882.806V917H529.675L512.119 891.435H512.05V917H506.817V882.806H511.866L529.331 908.463H529.399V882.806H534.632ZM547.266 917.39C545.659 917.39 544.221 917.115 542.951 916.564C541.697 916.013 540.702 915.195 539.968 914.108C539.234 913.022 538.866 911.676 538.866 910.069C538.866 908.692 539.126 907.56 539.647 906.673C540.182 905.785 540.894 905.082 541.781 904.562C542.684 904.041 543.709 903.651 544.856 903.391C546.019 903.116 547.212 902.909 548.436 902.771C549.951 902.573 551.152 902.42 552.039 902.312C552.927 902.19 553.554 902.007 553.921 901.762C554.304 901.502 554.495 901.081 554.495 900.5V900.293C554.495 899.513 554.304 898.824 553.921 898.228C553.539 897.631 552.98 897.164 552.246 896.828C551.527 896.491 550.662 896.323 549.653 896.323C548.643 896.323 547.748 896.491 546.967 896.828C546.187 897.149 545.568 897.6 545.109 898.182C544.65 898.763 544.39 899.429 544.328 900.178H539.463C539.555 898.679 540.022 897.34 540.863 896.162C541.704 894.969 542.875 894.028 544.374 893.339C545.874 892.636 547.641 892.284 549.675 892.284C551.175 892.284 552.521 892.483 553.715 892.88C554.923 893.263 555.948 893.814 556.79 894.533C557.631 895.252 558.274 896.101 558.717 897.08C559.176 898.059 559.406 899.138 559.406 900.316V917H554.518V913.558H554.426C554.089 914.215 553.623 914.843 553.026 915.439C552.445 916.021 551.687 916.495 550.754 916.862C549.821 917.214 548.658 917.39 547.266 917.39ZM548.299 913.443C549.706 913.443 550.869 913.19 551.787 912.686C552.705 912.181 553.386 911.515 553.829 910.689C554.288 909.847 554.518 908.93 554.518 907.935V905.135C554.349 905.258 554.074 905.38 553.692 905.502C553.324 905.61 552.873 905.717 552.338 905.824C551.817 905.931 551.244 906.038 550.616 906.145C550.004 906.237 549.385 906.321 548.758 906.397C547.885 906.52 547.067 906.726 546.302 907.017C545.552 907.292 544.94 907.683 544.466 908.188C544.007 908.677 543.778 909.335 543.778 910.161C543.778 911.186 544.183 911.989 544.994 912.571C545.805 913.152 546.906 913.443 548.299 913.443ZM564.352 917V892.766H569.102V896.69H569.194C569.638 895.359 570.334 894.326 571.283 893.592C572.246 892.842 573.501 892.467 575.046 892.467C575.413 892.467 575.75 892.483 576.056 892.513C576.377 892.528 576.637 892.551 576.836 892.582V897.172C576.637 897.141 576.293 897.095 575.804 897.034C575.329 896.973 574.809 896.942 574.243 896.942C573.34 896.942 572.514 897.157 571.765 897.585C571.015 897.998 570.418 898.633 569.975 899.49C569.531 900.347 569.309 901.433 569.309 902.749V917H564.352ZM586.533 917.39C584.926 917.39 583.488 917.115 582.218 916.564C580.964 916.013 579.969 915.195 579.235 914.108C578.501 913.022 578.133 911.676 578.133 910.069C578.133 908.692 578.394 907.56 578.914 906.673C579.449 905.785 580.161 905.082 581.048 904.562C581.951 904.041 582.976 903.651 584.123 903.391C585.286 903.116 586.479 902.909 587.703 902.771C589.218 902.573 590.419 902.42 591.306 902.312C592.194 902.19 592.821 902.007 593.188 901.762C593.571 901.502 593.762 901.081 593.762 900.5V900.293C593.762 899.513 593.571 898.824 593.188 898.228C592.806 897.631 592.247 897.164 591.513 896.828C590.794 896.491 589.929 896.323 588.92 896.323C587.91 896.323 587.015 896.491 586.234 896.828C585.454 897.149 584.835 897.6 584.376 898.182C583.917 898.763 583.657 899.429 583.595 900.178H578.73C578.822 898.679 579.289 897.34 580.13 896.162C580.971 894.969 582.142 894.028 583.641 893.339C585.141 892.636 586.908 892.284 588.943 892.284C590.442 892.284 591.788 892.483 592.982 892.88C594.19 893.263 595.215 893.814 596.057 894.533C596.898 895.252 597.541 896.101 597.984 897.08C598.443 898.059 598.673 899.138 598.673 900.316V917H593.785V913.558H593.693C593.356 914.215 592.89 914.843 592.293 915.439C591.712 916.021 590.954 916.495 590.021 916.862C589.088 917.214 587.925 917.39 586.533 917.39ZM587.566 913.443C588.973 913.443 590.136 913.19 591.054 912.686C591.972 912.181 592.653 911.515 593.096 910.689C593.555 909.847 593.785 908.93 593.785 907.935V905.135C593.616 905.258 593.341 905.38 592.959 905.502C592.591 905.61 592.14 905.717 591.605 905.824C591.084 905.931 590.511 906.038 589.883 906.145C589.271 906.237 588.652 906.321 588.025 906.397C587.152 906.52 586.334 906.726 585.569 907.017C584.819 907.292 584.207 907.683 583.733 908.188C583.274 908.677 583.045 909.335 583.045 910.161C583.045 911.186 583.45 911.989 584.261 912.571C585.072 913.152 586.173 913.443 587.566 913.443ZM606.465 926.593C605.945 926.593 605.424 926.593 604.904 926.593C604.384 926.593 603.864 926.593 603.344 926.593V922.255H605.776C606.633 922.255 607.299 921.988 607.773 921.452C608.262 920.917 608.653 920.266 608.943 919.501L609.907 917L600.681 892.766H605.96L612.546 911.217H612.638L619.133 892.766H624.319L613.51 921.223C613.082 922.37 612.523 923.342 611.835 924.137C611.146 924.948 610.343 925.56 609.425 925.973C608.522 926.386 607.536 926.593 606.465 926.593ZM633.786 917.39C632.18 917.39 630.742 917.115 629.472 916.564C628.217 916.013 627.223 915.195 626.488 914.108C625.754 913.022 625.387 911.676 625.387 910.069C625.387 908.692 625.647 907.56 626.167 906.673C626.703 905.785 627.414 905.082 628.301 904.562C629.204 904.041 630.229 903.651 631.377 903.391C632.539 903.116 633.733 902.909 634.957 902.771C636.471 902.573 637.672 902.42 638.56 902.312C639.447 902.19 640.074 902.007 640.441 901.762C640.824 901.502 641.015 901.081 641.015 900.5V900.293C641.015 899.513 640.824 898.824 640.441 898.228C640.059 897.631 639.501 897.164 638.766 896.828C638.047 896.491 637.183 896.323 636.173 896.323C635.163 896.323 634.268 896.491 633.488 896.828C632.708 897.149 632.088 897.6 631.629 898.182C631.17 898.763 630.91 899.429 630.849 900.178H625.983C626.075 898.679 626.542 897.34 627.383 896.162C628.225 894.969 629.395 894.028 630.895 893.339C632.394 892.636 634.161 892.284 636.196 892.284C637.695 892.284 639.042 892.483 640.235 892.88C641.444 893.263 642.469 893.814 643.31 894.533C644.152 895.252 644.794 896.101 645.238 897.08C645.697 898.059 645.926 899.138 645.926 900.316V917H641.038V913.558H640.946C640.61 914.215 640.143 914.843 639.546 915.439C638.965 916.021 638.208 916.495 637.274 916.862C636.341 917.214 635.178 917.39 633.786 917.39ZM634.819 913.443C636.226 913.443 637.389 913.19 638.307 912.686C639.225 912.181 639.906 911.515 640.35 910.689C640.809 909.847 641.038 908.93 641.038 907.935V905.135C640.87 905.258 640.594 905.38 640.212 905.502C639.845 905.61 639.393 905.717 638.858 905.824C638.338 905.931 637.764 906.038 637.137 906.145C636.525 906.237 635.905 906.321 635.278 906.397C634.406 906.52 633.587 906.726 632.822 907.017C632.073 907.292 631.461 907.683 630.986 908.188C630.527 908.677 630.298 909.335 630.298 910.161C630.298 911.186 630.703 911.989 631.514 912.571C632.325 913.152 633.427 913.443 634.819 913.443ZM655.829 902.978V917H650.872V892.766H655.738V896.851L655.829 896.805C656.38 895.535 657.26 894.464 658.469 893.592C659.677 892.72 661.23 892.284 663.127 892.284C664.795 892.284 666.317 892.651 667.694 893.385C669.086 894.12 670.196 895.198 671.022 896.621C671.848 898.044 672.261 899.803 672.261 901.899V917H667.304V902.496C667.304 900.568 666.799 899.107 665.789 898.113C664.795 897.118 663.448 896.621 661.75 896.621C660.664 896.621 659.67 896.843 658.767 897.287C657.879 897.73 657.168 898.419 656.633 899.352C656.097 900.285 655.829 901.494 655.829 902.978ZM684.528 917.39C682.921 917.39 681.483 917.115 680.213 916.564C678.959 916.013 677.964 915.195 677.23 914.108C676.496 913.022 676.128 911.676 676.128 910.069C676.128 908.692 676.389 907.56 676.909 906.673C677.444 905.785 678.156 905.082 679.043 904.562C679.946 904.041 680.971 903.651 682.118 903.391C683.281 903.116 684.474 902.909 685.698 902.771C687.213 902.573 688.414 902.42 689.301 902.312C690.189 902.19 690.816 902.007 691.183 901.762C691.566 901.502 691.757 901.081 691.757 900.5V900.293C691.757 899.513 691.566 898.824 691.183 898.228C690.801 897.631 690.242 897.164 689.508 896.828C688.789 896.491 687.924 896.323 686.915 896.323C685.905 896.323 685.01 896.491 684.229 896.828C683.449 897.149 682.83 897.6 682.371 898.182C681.912 898.763 681.652 899.429 681.59 900.178H676.725C676.817 898.679 677.284 897.34 678.125 896.162C678.966 894.969 680.137 894.028 681.636 893.339C683.136 892.636 684.903 892.284 686.938 892.284C688.437 892.284 689.783 892.483 690.977 892.88C692.185 893.263 693.21 893.814 694.052 894.533C694.893 895.252 695.536 896.101 695.979 897.08C696.438 898.059 696.668 899.138 696.668 900.316V917H691.78V913.558H691.688C691.351 914.215 690.885 914.843 690.288 915.439C689.707 916.021 688.949 916.495 688.016 916.862C687.083 917.214 685.92 917.39 684.528 917.39ZM685.561 913.443C686.968 913.443 688.131 913.19 689.049 912.686C689.967 912.181 690.648 911.515 691.091 910.689C691.55 909.847 691.78 908.93 691.78 907.935V905.135C691.611 905.258 691.336 905.38 690.954 905.502C690.586 905.61 690.135 905.717 689.6 905.824C689.079 905.931 688.506 906.038 687.878 906.145C687.266 906.237 686.647 906.321 686.02 906.397C685.147 906.52 684.329 906.726 683.564 907.017C682.814 907.292 682.202 907.683 681.728 908.188C681.269 908.677 681.04 909.335 681.04 910.161C681.04 911.186 681.445 911.989 682.256 912.571C683.067 913.152 684.168 913.443 685.561 913.443ZM712.664 917V882.806H717.897V897.562H734.742V882.806H739.951V917H734.742V902.129H717.897V917H712.664ZM755.683 917.551C753.281 917.551 751.216 917.008 749.487 915.921C747.758 914.835 746.427 913.343 745.494 911.446C744.576 909.534 744.117 907.361 744.117 904.929C744.117 902.45 744.599 900.262 745.563 898.365C746.527 896.453 747.858 894.953 749.556 893.867C751.254 892.766 753.212 892.215 755.431 892.215C757.144 892.215 758.697 892.521 760.09 893.133C761.482 893.745 762.675 894.617 763.67 895.749C764.679 896.866 765.444 898.197 765.965 899.742C766.5 901.287 766.768 902.993 766.768 904.86V906.214H746.297V902.542H764.197L762.017 903.621C762.017 902.137 761.75 900.851 761.214 899.765C760.679 898.664 759.921 897.814 758.942 897.218C757.963 896.621 756.808 896.323 755.477 896.323C754.161 896.323 753.014 896.621 752.034 897.218C751.07 897.814 750.321 898.664 749.785 899.765C749.25 900.851 748.982 902.137 748.982 903.621V905.755C748.982 907.27 749.242 908.608 749.762 909.771C750.298 910.918 751.07 911.821 752.08 912.479C753.09 913.122 754.314 913.443 755.752 913.443C756.808 913.443 757.733 913.282 758.529 912.961C759.34 912.64 760.005 912.196 760.526 911.63C761.061 911.049 761.444 910.375 761.673 909.61H766.424C766.118 911.186 765.46 912.571 764.45 913.764C763.455 914.942 762.201 915.868 760.686 916.541C759.187 917.214 757.519 917.551 755.683 917.551ZM777.795 917.39C776.189 917.39 774.751 917.115 773.481 916.564C772.226 916.013 771.232 915.195 770.497 914.108C769.763 913.022 769.396 911.676 769.396 910.069C769.396 908.692 769.656 907.56 770.176 906.673C770.712 905.785 771.423 905.082 772.31 904.562C773.213 904.041 774.238 903.651 775.386 903.391C776.548 903.116 777.742 902.909 778.966 902.771C780.48 902.573 781.681 902.42 782.569 902.312C783.456 902.19 784.083 902.007 784.451 901.762C784.833 901.502 785.024 901.081 785.024 900.5V900.293C785.024 899.513 784.833 898.824 784.451 898.228C784.068 897.631 783.51 897.164 782.775 896.828C782.056 896.491 781.192 896.323 780.182 896.323C779.172 896.323 778.277 896.491 777.497 896.828C776.717 897.149 776.097 897.6 775.638 898.182C775.179 898.763 774.919 899.429 774.858 900.178H769.993C770.084 898.679 770.551 897.34 771.392 896.162C772.234 894.969 773.404 894.028 774.904 893.339C776.403 892.636 778.17 892.284 780.205 892.284C781.704 892.284 783.051 892.483 784.244 892.88C785.453 893.263 786.478 893.814 787.319 894.533C788.161 895.252 788.803 896.101 789.247 897.08C789.706 898.059 789.935 899.138 789.935 900.316V917H785.047V913.558H784.955C784.619 914.215 784.152 914.843 783.556 915.439C782.974 916.021 782.217 916.495 781.284 916.862C780.35 917.214 779.188 917.39 777.795 917.39ZM778.828 913.443C780.236 913.443 781.398 913.19 782.316 912.686C783.234 912.181 783.915 911.515 784.359 910.689C784.818 909.847 785.047 908.93 785.047 907.935V905.135C784.879 905.258 784.604 905.38 784.221 905.502C783.854 905.61 783.403 905.717 782.867 905.824C782.347 905.931 781.773 906.038 781.146 906.145C780.534 906.237 779.914 906.321 779.287 906.397C778.415 906.52 777.596 906.726 776.831 907.017C776.082 907.292 775.47 907.683 774.995 908.188C774.536 908.677 774.307 909.335 774.307 910.161C774.307 911.186 774.712 911.989 775.523 912.571C776.334 913.152 777.436 913.443 778.828 913.443ZM799.884 882.806V917H794.927V882.806H799.884ZM816.374 892.766V896.851H802.903V892.766H816.374ZM806.483 886.156H811.44V910.115C811.44 911.125 811.646 911.844 812.059 912.272C812.488 912.701 813.207 912.915 814.217 912.915C814.584 912.915 814.951 912.915 815.318 912.915C815.701 912.915 816.053 912.915 816.374 912.915V917C815.976 917 815.509 917 814.974 917C814.454 917 813.934 917 813.413 917C811.21 917 809.504 916.472 808.296 915.417C807.087 914.346 806.483 912.846 806.483 910.918V886.156ZM825.336 902.978V917H820.379V882.806H825.336V896.805H825.405C825.956 895.535 826.835 894.464 828.044 893.592C829.253 892.72 830.806 892.284 832.703 892.284C834.386 892.284 835.908 892.651 837.27 893.385C838.631 894.12 839.718 895.198 840.528 896.621C841.355 898.044 841.768 899.803 841.768 901.899V917H836.811V902.496C836.811 900.568 836.313 899.107 835.319 898.113C834.324 897.118 832.978 896.621 831.28 896.621C830.194 896.621 829.199 896.843 828.296 897.287C827.394 897.73 826.675 898.419 826.139 899.352C825.604 900.285 825.336 901.494 825.336 902.978Z" fill="#4D4D4D"/>
<rect x="120" y="752" width="287" height="80" rx="40" fill="#FAD24C"/>
<circle cx="160" cy="792" r="10" fill="#333333"/>
<path d="M203.465 805.422C201.121 805.422 199.023 804.865 197.172 803.752C195.332 802.639 193.879 801.074 192.812 799.059C191.758 797.031 191.23 794.652 191.23 791.922C191.23 789.168 191.758 786.783 192.812 784.768C193.879 782.74 195.332 781.17 197.172 780.057C199.023 778.943 201.121 778.387 203.465 778.387C205.809 778.387 207.9 778.943 209.74 780.057C211.58 781.17 213.033 782.74 214.1 784.768C215.166 786.783 215.699 789.168 215.699 791.922C215.699 794.652 215.166 797.031 214.1 799.059C213.033 801.074 211.58 802.639 209.74 803.752C207.9 804.865 205.809 805.422 203.465 805.422ZM203.465 801.115C204.871 801.115 206.131 800.758 207.244 800.043C208.357 799.328 209.236 798.285 209.881 796.914C210.525 795.543 210.848 793.879 210.848 791.922C210.848 789.953 210.525 788.283 209.881 786.912C209.236 785.529 208.357 784.48 207.244 783.766C206.131 783.051 204.871 782.693 203.465 782.693C202.059 782.693 200.799 783.051 199.686 783.766C198.572 784.48 197.693 785.529 197.049 786.912C196.404 788.283 196.082 789.953 196.082 791.922C196.082 793.879 196.404 795.543 197.049 796.914C197.693 798.285 198.572 799.328 199.686 800.043C200.799 800.758 202.059 801.115 203.465 801.115ZM242.399 778.809V805H238.04L225.366 786.807H225.313V805H220.497V778.809H224.961L237.53 797.037H237.583V778.809H242.399ZM269.009 805.422C266.584 805.422 264.445 804.859 262.593 803.734C260.742 802.598 259.295 801.016 258.252 798.988C257.209 796.949 256.687 794.594 256.687 791.922C256.687 789.168 257.22 786.777 258.287 784.75C259.353 782.723 260.812 781.158 262.664 780.057C264.515 778.943 266.613 778.387 268.957 778.387C270.433 778.387 271.816 778.609 273.105 779.055C274.406 779.488 275.56 780.109 276.568 780.918C277.576 781.727 278.408 782.688 279.064 783.801C279.72 784.914 280.136 786.15 280.312 787.51H275.408C275.256 786.783 274.992 786.127 274.617 785.541C274.254 784.943 273.797 784.434 273.246 784.012C272.695 783.59 272.068 783.268 271.365 783.045C270.674 782.811 269.912 782.693 269.08 782.693C267.545 782.693 266.209 783.074 265.072 783.836C263.947 784.598 263.074 785.67 262.453 787.053C261.843 788.424 261.539 790.047 261.539 791.922C261.539 793.785 261.843 795.408 262.453 796.791C263.074 798.162 263.953 799.229 265.09 799.99C266.226 800.74 267.568 801.115 269.115 801.115C270.404 801.115 271.547 800.857 272.543 800.342C273.539 799.826 274.324 799.111 274.898 798.197C275.472 797.271 275.759 796.199 275.759 794.98L276.972 795.068H269.748V791.289H280.488V794.506C280.488 796.639 279.99 798.525 278.994 800.166C278.009 801.807 276.656 803.096 274.933 804.033C273.211 804.959 271.236 805.422 269.009 805.422ZM296.799 805.422C294.455 805.422 292.358 804.865 290.506 803.752C288.666 802.639 287.213 801.074 286.147 799.059C285.092 797.031 284.565 794.652 284.565 791.922C284.565 789.168 285.092 786.783 286.147 784.768C287.213 782.74 288.666 781.17 290.506 780.057C292.358 778.943 294.455 778.387 296.799 778.387C299.143 778.387 301.235 778.943 303.074 780.057C304.914 781.17 306.367 782.74 307.434 784.768C308.5 786.783 309.033 789.168 309.033 791.922C309.033 794.652 308.5 797.031 307.434 799.059C306.367 801.074 304.914 802.639 303.074 803.752C301.235 804.865 299.143 805.422 296.799 805.422ZM296.799 801.115C298.205 801.115 299.465 800.758 300.578 800.043C301.692 799.328 302.571 798.285 303.215 796.914C303.86 795.543 304.182 793.879 304.182 791.922C304.182 789.953 303.86 788.283 303.215 786.912C302.571 785.529 301.692 784.48 300.578 783.766C299.465 783.051 298.205 782.693 296.799 782.693C295.393 782.693 294.133 783.051 293.02 783.766C291.906 784.48 291.028 785.529 290.383 786.912C289.739 788.283 289.416 789.953 289.416 791.922C289.416 793.879 289.739 795.543 290.383 796.914C291.028 798.285 291.906 799.328 293.02 800.043C294.133 800.758 295.393 801.115 296.799 801.115ZM318.647 778.809V805H313.831V778.809H318.647ZM346.244 778.809V805H341.884L329.21 786.807H329.158V805H324.341V778.809H328.806L341.374 797.037H341.427V778.809H346.244ZM363.363 805.422C360.937 805.422 358.799 804.859 356.947 803.734C355.096 802.598 353.648 801.016 352.605 798.988C351.562 796.949 351.041 794.594 351.041 791.922C351.041 789.168 351.574 786.777 352.641 784.75C353.707 782.723 355.166 781.158 357.018 780.057C358.869 778.943 360.967 778.387 363.31 778.387C364.787 778.387 366.17 778.609 367.459 779.055C368.76 779.488 369.914 780.109 370.922 780.918C371.93 781.727 372.762 782.688 373.418 783.801C374.074 784.914 374.49 786.15 374.666 787.51H369.762C369.609 786.783 369.346 786.127 368.971 785.541C368.607 784.943 368.15 784.434 367.6 784.012C367.049 783.59 366.422 783.268 365.719 783.045C365.027 782.811 364.266 782.693 363.434 782.693C361.898 782.693 360.562 783.074 359.426 783.836C358.301 784.598 357.428 785.67 356.807 787.053C356.197 788.424 355.893 790.047 355.893 791.922C355.893 793.785 356.197 795.408 356.807 796.791C357.428 798.162 358.307 799.229 359.443 799.99C360.58 800.74 361.922 801.115 363.469 801.115C364.758 801.115 365.9 800.857 366.896 800.342C367.893 799.826 368.678 799.111 369.252 798.197C369.826 797.271 370.113 796.199 370.113 794.98L371.326 795.068H364.101V791.289H374.842V794.506C374.842 796.639 374.344 798.525 373.348 800.166C372.363 801.807 371.01 803.096 369.287 804.033C367.564 804.959 365.59 805.422 363.363 805.422Z" fill="#333333"/>
<defs>
<linearGradient id="paint0_linear_0_1" x1="960" y1="0" x2="960" y2="548" gradientUnits="userSpaceOnUse">
<stop stop-color="#E3F0FF"/>
<stop offset="1" stop-color="white"/>
</linearGradient>
</defs>
</svg>
